<mxfile host="Electron" agent="Mozilla/5.0 (Windows NT 10.0; Win64; x64) AppleWebKit/537.36 (KHTML, like Gecko) draw.io/25.0.2 Chrome/128.0.6613.186 Electron/32.2.5 Safari/537.36" version="25.0.2" pages="2">
  <diagram name="Página-1" id="OR4TdcYiKhtKHPCHXBGu">
    <mxGraphModel dx="674" dy="722" grid="1" gridSize="10" guides="1" tooltips="1" connect="1" arrows="1" fold="1" page="1" pageScale="1" pageWidth="827" pageHeight="1169" background="none" math="0" shadow="1">
      <root>
        <mxCell id="0" />
        <mxCell id="1" parent="0" />
        <mxCell id="uhMiP-YN3ovVwJhI3KmD-38" style="edgeStyle=orthogonalEdgeStyle;rounded=0;orthogonalLoop=1;jettySize=auto;html=1;" edge="1" parent="1" source="uhMiP-YN3ovVwJhI3KmD-37">
          <mxGeometry relative="1" as="geometry">
            <mxPoint x="1241" y="120" as="targetPoint" />
          </mxGeometry>
        </mxCell>
        <mxCell id="uhMiP-YN3ovVwJhI3KmD-37" value="INÍCIO" style="rounded=1;whiteSpace=wrap;html=1;" vertex="1" parent="1">
          <mxGeometry x="1181" y="20" width="120" height="60" as="geometry" />
        </mxCell>
        <mxCell id="uhMiP-YN3ovVwJhI3KmD-40" style="edgeStyle=orthogonalEdgeStyle;rounded=0;orthogonalLoop=1;jettySize=auto;html=1;" edge="1" parent="1" source="uhMiP-YN3ovVwJhI3KmD-39">
          <mxGeometry relative="1" as="geometry">
            <mxPoint x="1241" y="250" as="targetPoint" />
          </mxGeometry>
        </mxCell>
        <mxCell id="uhMiP-YN3ovVwJhI3KmD-39" value="&amp;nbsp;N1" style="rounded=1;whiteSpace=wrap;html=1;" vertex="1" parent="1">
          <mxGeometry x="1181" y="120" width="120" height="60" as="geometry" />
        </mxCell>
        <mxCell id="uhMiP-YN3ovVwJhI3KmD-50" style="edgeStyle=orthogonalEdgeStyle;rounded=0;orthogonalLoop=1;jettySize=auto;html=1;" edge="1" parent="1" source="uhMiP-YN3ovVwJhI3KmD-48">
          <mxGeometry relative="1" as="geometry">
            <mxPoint x="1410" y="290" as="targetPoint" />
          </mxGeometry>
        </mxCell>
        <mxCell id="uhMiP-YN3ovVwJhI3KmD-52" style="edgeStyle=orthogonalEdgeStyle;rounded=0;orthogonalLoop=1;jettySize=auto;html=1;" edge="1" parent="1" source="uhMiP-YN3ovVwJhI3KmD-48">
          <mxGeometry relative="1" as="geometry">
            <mxPoint x="1241" y="450" as="targetPoint" />
          </mxGeometry>
        </mxCell>
        <mxCell id="uhMiP-YN3ovVwJhI3KmD-48" value="NÚMERO == 0&amp;nbsp;" style="rhombus;whiteSpace=wrap;html=1;" vertex="1" parent="1">
          <mxGeometry x="1201" y="250" width="80" height="80" as="geometry" />
        </mxCell>
        <mxCell id="uhMiP-YN3ovVwJhI3KmD-63" style="edgeStyle=orthogonalEdgeStyle;rounded=0;orthogonalLoop=1;jettySize=auto;html=1;" edge="1" parent="1" source="uhMiP-YN3ovVwJhI3KmD-51">
          <mxGeometry relative="1" as="geometry">
            <mxPoint x="1310" y="60" as="targetPoint" />
            <Array as="points">
              <mxPoint x="1480" y="60" />
            </Array>
          </mxGeometry>
        </mxCell>
        <mxCell id="uhMiP-YN3ovVwJhI3KmD-51" value="INSERIR NÚMERO DIFERENTE (ERRO)" style="shape=document;whiteSpace=wrap;html=1;boundedLbl=1;size=0.5;" vertex="1" parent="1">
          <mxGeometry x="1420" y="260" width="120" height="80" as="geometry" />
        </mxCell>
        <mxCell id="uhMiP-YN3ovVwJhI3KmD-54" style="edgeStyle=orthogonalEdgeStyle;rounded=0;orthogonalLoop=1;jettySize=auto;html=1;" edge="1" parent="1" target="uhMiP-YN3ovVwJhI3KmD-55">
          <mxGeometry relative="1" as="geometry">
            <mxPoint x="1400" y="480" as="targetPoint" />
            <mxPoint x="1291" y="480" as="sourcePoint" />
          </mxGeometry>
        </mxCell>
        <mxCell id="uhMiP-YN3ovVwJhI3KmD-56" style="edgeStyle=orthogonalEdgeStyle;rounded=0;orthogonalLoop=1;jettySize=auto;html=1;" edge="1" parent="1">
          <mxGeometry relative="1" as="geometry">
            <mxPoint x="1090" y="480" as="targetPoint" />
            <mxPoint x="1191" y="480" as="sourcePoint" />
          </mxGeometry>
        </mxCell>
        <mxCell id="uhMiP-YN3ovVwJhI3KmD-60" style="edgeStyle=orthogonalEdgeStyle;rounded=0;orthogonalLoop=1;jettySize=auto;html=1;" edge="1" parent="1" source="uhMiP-YN3ovVwJhI3KmD-55">
          <mxGeometry relative="1" as="geometry">
            <mxPoint x="1320" y="680" as="targetPoint" />
            <Array as="points">
              <mxPoint x="1480" y="680" />
            </Array>
          </mxGeometry>
        </mxCell>
        <mxCell id="uhMiP-YN3ovVwJhI3KmD-55" value="SEU NÚMERO É POSITIVO" style="shape=document;whiteSpace=wrap;html=1;boundedLbl=1;" vertex="1" parent="1">
          <mxGeometry x="1420" y="440" width="120" height="80" as="geometry" />
        </mxCell>
        <mxCell id="uhMiP-YN3ovVwJhI3KmD-59" style="edgeStyle=orthogonalEdgeStyle;rounded=0;orthogonalLoop=1;jettySize=auto;html=1;" edge="1" parent="1" source="uhMiP-YN3ovVwJhI3KmD-57">
          <mxGeometry relative="1" as="geometry">
            <mxPoint x="1190" y="670" as="targetPoint" />
            <Array as="points">
              <mxPoint x="1020" y="670" />
            </Array>
          </mxGeometry>
        </mxCell>
        <mxCell id="uhMiP-YN3ovVwJhI3KmD-57" value="SEU NÚMERO É NEGATIVO" style="shape=document;whiteSpace=wrap;html=1;boundedLbl=1;" vertex="1" parent="1">
          <mxGeometry x="960" y="440" width="120" height="80" as="geometry" />
        </mxCell>
        <mxCell id="uhMiP-YN3ovVwJhI3KmD-61" value="FIM" style="rounded=1;whiteSpace=wrap;html=1;" vertex="1" parent="1">
          <mxGeometry x="1200" y="630" width="120" height="60" as="geometry" />
        </mxCell>
        <mxCell id="uhMiP-YN3ovVwJhI3KmD-62" value="NÚMERO &amp;gt;0" style="rhombus;whiteSpace=wrap;html=1;" vertex="1" parent="1">
          <mxGeometry x="1200" y="440" width="80" height="80" as="geometry" />
        </mxCell>
      </root>
    </mxGraphModel>
  </diagram>
  <diagram id="hLmoAkFa_WJQOQsR_zxJ" name="Página-2">
    <mxGraphModel dx="449" dy="614" grid="1" gridSize="10" guides="1" tooltips="1" connect="1" arrows="1" fold="1" page="1" pageScale="1" pageWidth="827" pageHeight="1169" math="0" shadow="0">
      <root>
        <mxCell id="0" />
        <mxCell id="1" parent="0" />
        <mxCell id="IFQTlK2DJ1mVvAzj0ZCv-1" style="edgeStyle=orthogonalEdgeStyle;rounded=0;orthogonalLoop=1;jettySize=auto;html=1;" edge="1" parent="1" source="IFQTlK2DJ1mVvAzj0ZCv-2">
          <mxGeometry relative="1" as="geometry">
            <mxPoint x="1241" y="120" as="targetPoint" />
          </mxGeometry>
        </mxCell>
        <mxCell id="IFQTlK2DJ1mVvAzj0ZCv-2" value="INÍCIO" style="rounded=1;whiteSpace=wrap;html=1;" vertex="1" parent="1">
          <mxGeometry x="1181" y="20" width="120" height="60" as="geometry" />
        </mxCell>
        <mxCell id="IFQTlK2DJ1mVvAzj0ZCv-3" style="edgeStyle=orthogonalEdgeStyle;rounded=0;orthogonalLoop=1;jettySize=auto;html=1;" edge="1" parent="1" source="IFQTlK2DJ1mVvAzj0ZCv-4">
          <mxGeometry relative="1" as="geometry">
            <mxPoint x="1241" y="250" as="targetPoint" />
          </mxGeometry>
        </mxCell>
        <mxCell id="IFQTlK2DJ1mVvAzj0ZCv-4" value="&amp;nbsp;N1" style="rounded=1;whiteSpace=wrap;html=1;" vertex="1" parent="1">
          <mxGeometry x="1181" y="120" width="120" height="60" as="geometry" />
        </mxCell>
        <mxCell id="IFQTlK2DJ1mVvAzj0ZCv-5" style="edgeStyle=orthogonalEdgeStyle;rounded=0;orthogonalLoop=1;jettySize=auto;html=1;" edge="1" parent="1" source="IFQTlK2DJ1mVvAzj0ZCv-7">
          <mxGeometry relative="1" as="geometry">
            <mxPoint x="1410" y="290" as="targetPoint" />
          </mxGeometry>
        </mxCell>
        <mxCell id="IFQTlK2DJ1mVvAzj0ZCv-6" style="edgeStyle=orthogonalEdgeStyle;rounded=0;orthogonalLoop=1;jettySize=auto;html=1;" edge="1" parent="1" source="IFQTlK2DJ1mVvAzj0ZCv-7">
          <mxGeometry relative="1" as="geometry">
            <mxPoint x="1241" y="450" as="targetPoint" />
          </mxGeometry>
        </mxCell>
        <mxCell id="IFQTlK2DJ1mVvAzj0ZCv-7" value="NÚMERO == 0&amp;nbsp;" style="rhombus;whiteSpace=wrap;html=1;" vertex="1" parent="1">
          <mxGeometry x="1201" y="250" width="80" height="80" as="geometry" />
        </mxCell>
        <mxCell id="IFQTlK2DJ1mVvAzj0ZCv-8" style="edgeStyle=orthogonalEdgeStyle;rounded=0;orthogonalLoop=1;jettySize=auto;html=1;" edge="1" parent="1" source="IFQTlK2DJ1mVvAzj0ZCv-9">
          <mxGeometry relative="1" as="geometry">
            <mxPoint x="1310" y="60" as="targetPoint" />
            <Array as="points">
              <mxPoint x="1480" y="60" />
            </Array>
          </mxGeometry>
        </mxCell>
        <mxCell id="IFQTlK2DJ1mVvAzj0ZCv-9" value="INSERIR NÚMERO DIFERENTE (ERRO)" style="shape=document;whiteSpace=wrap;html=1;boundedLbl=1;size=0.5;" vertex="1" parent="1">
          <mxGeometry x="1420" y="260" width="120" height="80" as="geometry" />
        </mxCell>
        <mxCell id="IFQTlK2DJ1mVvAzj0ZCv-10" style="edgeStyle=orthogonalEdgeStyle;rounded=0;orthogonalLoop=1;jettySize=auto;html=1;" edge="1" parent="1" target="IFQTlK2DJ1mVvAzj0ZCv-13">
          <mxGeometry relative="1" as="geometry">
            <mxPoint x="1400" y="480" as="targetPoint" />
            <mxPoint x="1291" y="480" as="sourcePoint" />
          </mxGeometry>
        </mxCell>
        <mxCell id="IFQTlK2DJ1mVvAzj0ZCv-11" style="edgeStyle=orthogonalEdgeStyle;rounded=0;orthogonalLoop=1;jettySize=auto;html=1;" edge="1" parent="1">
          <mxGeometry relative="1" as="geometry">
            <mxPoint x="1090" y="480" as="targetPoint" />
            <mxPoint x="1191" y="480" as="sourcePoint" />
          </mxGeometry>
        </mxCell>
        <mxCell id="IFQTlK2DJ1mVvAzj0ZCv-12" style="edgeStyle=orthogonalEdgeStyle;rounded=0;orthogonalLoop=1;jettySize=auto;html=1;" edge="1" parent="1" source="IFQTlK2DJ1mVvAzj0ZCv-13">
          <mxGeometry relative="1" as="geometry">
            <mxPoint x="1320" y="680" as="targetPoint" />
            <Array as="points">
              <mxPoint x="1480" y="680" />
            </Array>
          </mxGeometry>
        </mxCell>
        <mxCell id="IFQTlK2DJ1mVvAzj0ZCv-13" value="SEU NÚMERO É POSITIVO" style="shape=document;whiteSpace=wrap;html=1;boundedLbl=1;" vertex="1" parent="1">
          <mxGeometry x="1420" y="440" width="120" height="80" as="geometry" />
        </mxCell>
        <mxCell id="IFQTlK2DJ1mVvAzj0ZCv-14" style="edgeStyle=orthogonalEdgeStyle;rounded=0;orthogonalLoop=1;jettySize=auto;html=1;" edge="1" parent="1" source="IFQTlK2DJ1mVvAzj0ZCv-15">
          <mxGeometry relative="1" as="geometry">
            <mxPoint x="1190" y="670" as="targetPoint" />
            <Array as="points">
              <mxPoint x="1020" y="670" />
            </Array>
          </mxGeometry>
        </mxCell>
        <mxCell id="IFQTlK2DJ1mVvAzj0ZCv-15" value="SEU NÚMERO É NEGATIVO" style="shape=document;whiteSpace=wrap;html=1;boundedLbl=1;" vertex="1" parent="1">
          <mxGeometry x="960" y="440" width="120" height="80" as="geometry" />
        </mxCell>
        <mxCell id="IFQTlK2DJ1mVvAzj0ZCv-16" value="FIM" style="rounded=1;whiteSpace=wrap;html=1;" vertex="1" parent="1">
          <mxGeometry x="1200" y="630" width="120" height="60" as="geometry" />
        </mxCell>
        <mxCell id="IFQTlK2DJ1mVvAzj0ZCv-17" value="NÚMERO &amp;gt;0" style="rhombus;whiteSpace=wrap;html=1;" vertex="1" parent="1">
          <mxGeometry x="1200" y="440" width="80" height="80" as="geometry" />
        </mxCell>
      </root>
    </mxGraphModel>
  </diagram>
</mxfile>
